<?xml version="1.0" encoding="UTF-8" standalone="no"?>
<!DOCTYPE svg PUBLIC "-//W3C//DTD SVG 1.1//EN" "http://www.w3.org/Graphics/SVG/1.1/DTD/svg11.dtd">
<svg width="100%" height="100%" viewBox="0 0 2048 2048" version="1.1" xmlns="http://www.w3.org/2000/svg" xmlns:xlink="http://www.w3.org/1999/xlink" xml:space="preserve" xmlns:serif="http://www.serif.com/" style="fill-rule:evenodd;clip-rule:evenodd;stroke-linejoin:round;stroke-miterlimit:2;">
    <g transform="matrix(0.964904,0,0,0.964904,759.616,693.96)">
        <path d="M403.75,8.892C381.13,35.141 353.31,56.714 329.67,81.915C313.37,101.851 292.85,119.212 276.061,138.669C271.882,153.924 258.737,162.816 252.419,176.509C252.419,176.509 242.704,200.039 235.603,205.413C230.894,208.98 228.253,208.723 225.791,208.466C224.547,208.338 223.347,208.207 221.948,208.574C210.914,201.746 205.121,190.162 198.841,179.668C177.794,142.377 147.822,110.819 124.723,75.091C116.866,50.361 88.991,40.41 65.864,38.812C57.455,30.967 44.309,24.108 34.872,33.583C17.531,44.622 23.302,67.209 27.008,83.515C27.499,103.482 40.661,119.212 45.912,138.159C72.71,198.045 98.449,259.008 127.88,318.419C131.57,326.26 136.308,336.249 131.025,344.637C97.946,402.446 69.549,462.869 39.59,522.784C28.044,536.949 12.83,552.194 14.899,572.167C17.042,592.65 2.297,609.497 1.739,629.978C1.77,656.268 -1.917,686.698 18.056,707.25C25.393,707.25 34.851,708.848 39.59,700.932C75.357,696.716 110.544,680.451 134.708,654.162C148.363,631.068 170.461,614.726 182.008,591.047C199.309,565.339 206.682,528.594 236.113,514.866C256.084,544.858 277.11,575.363 299.17,604.193C316.021,621.044 333.37,639.999 357.491,644.647C373.291,640.507 387.45,632.084 403.75,628.452C421.07,624.168 432.65,605.285 432.65,588.438C424.78,557.425 403.28,532.805 385.881,507.53C392.201,479.138 372.191,453.43 358.539,429.751C342.78,408.254 329.09,385.667 313.37,364.098C302.841,349.392 320.19,337.81 324.911,324.7C333.88,304.691 351.71,290.528 361.729,271.101C381.201,238.534 385.881,199.641 403.24,165.977C425.321,134.459 434.761,96.113 451.571,61.942C448.919,41.463 442.09,21.492 432.11,3.625C428.721,1.631 424.741,0.624 420.761,0.624C414.22,0.624 407.67,3.341 403.75,8.892Z" style="fill:white;"/>
    </g>
    <g transform="matrix(0.964904,0,0,0.964904,60.097,684.31)">
        <path d="M656.833,29.387C646.83,68.276 633.175,105.606 624.262,145.005C607.941,176.525 606.905,213.308 596.937,246.934C598.483,278.488 587.44,308.375 588.004,339.932C567.488,314.183 545.975,288.984 524.951,263.241C508.134,239.566 502.849,210.147 486.058,187.055C467.14,154.446 438.762,128.703 408.784,106.079C403.469,106.089 398.068,105.886 392.639,105.685C378.783,105.167 364.754,104.649 351.541,107.675C342.097,126.628 342.603,149.221 332.619,167.592C325.776,184.912 316.333,201.728 313.172,220.646C312.666,251.146 301.608,280.598 296.346,310.518C279.003,342.542 290.063,379.362 284.27,414.043C271.143,411.975 268.527,394.58 260.122,386.19C235.919,339.422 202.293,298.461 180.235,250.636C160.771,216.469 143.452,180.227 118.738,149.18C108.774,137.089 106.664,120.31 95.1,109.781C83.555,95.622 57.807,91.916 44.646,106.114C44.137,113.483 47.293,121.33 46.752,128.703C43.556,130.917 40.238,129.673 36.966,128.425C33.261,127.018 29.615,125.606 26.27,129.213C1.872,141.193 1.087,169.519 0,192.504L0,193.748C1.701,210.945 9.485,226.582 15.215,242.76C24.144,269.517 43.575,291.055 57.262,315.785C73.042,347.301 96.155,375.188 106.159,409.322C114.547,427.694 118.213,447.162 129.252,463.936C142.923,496.035 156.07,528.065 170.777,559.585C183.901,581.154 199.136,601.635 210.702,624.22C232.762,655.734 252.225,692.558 287.938,709.843C303.714,713.039 319.459,714.054 335.253,716.16C343.677,724.588 355.207,729.31 365.737,720.882C382.002,701.492 385.146,674.62 388.829,650C397.257,638.453 406.17,627.924 411.982,614.78C431.404,593.207 420.333,563.287 424.056,537.502C430.353,505.986 428.247,473.96 429.283,442.44C429.828,441.35 431.934,438.736 432.475,437.138C453.996,453.989 466.103,483.404 480.807,507.002C504.449,541.208 521.24,580.644 551.237,610.054C568.559,623.2 584.828,638.888 605.85,645.281C614.294,644.7 621.611,638.888 630.014,640.998C635.266,651.528 639.478,665.177 652.112,667.865C662.627,662.563 662.627,649.422 669.433,640.998C675.751,633.151 680.997,624.727 687.319,617.392C700.444,612.165 715.678,603.161 714.644,587.47C713.589,545.42 723.561,503.372 721.982,461.321C724.612,398.792 725.684,335.756 723.033,273.223C730.911,249.04 727.228,223.297 730.911,198.567C737.229,158.623 729.35,118.169 733.525,77.72C728.279,57.782 694.653,30.438 694.653,30.438C694.653,30.438 679.946,8.905 677.861,0.012C665.222,4.189 659.994,17.875 656.833,29.387Z" style="fill:white;"/>
    </g>
    <g transform="matrix(0.964904,0,0,0.964904,1191.89,724.836)">
        <path d="M431.798,1.041C420.798,12.082 416.05,27.837 402.94,37.316C392.949,36.265 388.739,21.013 377.148,24.715C365.1,28.382 350.358,27.329 340.37,35.72C298.859,71.993 272.1,121.925 239.999,165.536C231.109,161.869 226.348,152.39 219.019,146.073C194.359,122.466 168.029,99.301 145.438,73.008C125.469,50.424 101.838,31.543 75.579,17.853C55.568,8.921 36.138,17.888 20.889,31.543C21.438,63.569 39.849,90.915 51.899,119.784C80.808,175.993 127.58,222.292 170.678,266.957C143.88,320.005 112.359,369.937 88.139,424.548C65.02,467.11 50.849,514.387 26.189,556.439C18.789,572.194 7.24,586.436 3.07,603.281C0.918,620.563 0.918,637.923 5.679,654.774C15.15,656.805 25.099,653.101 34.58,652.081C34.509,673.07 42.419,692.535 57.168,707.786C68.168,704.663 76.049,693.628 88.139,693.041C121.809,690.431 154.919,670.458 164.4,636.832C187.998,610.542 197.949,575.9 213.789,544.889C223.228,521.72 237.389,500.806 246.868,477.131C266.839,442.995 279.439,405.667 296.249,369.937C335.138,313.729 360.888,250.141 379.799,184.963C395.059,132.927 422.869,86.193 441.789,35.21C440.798,25.372 448.559,0.699 434.849,0.699C433.929,0.699 432.918,0.808 431.798,1.041Z" style="fill:white;"/>
    </g>
    <g transform="matrix(0.964904,0,0,0.964904,1520.92,711.328)">
        <path d="M402.33,4.458C351.999,20.902 301.629,37.958 255.73,66.744C214.311,98.495 170.619,127.853 132.439,164.887C103.17,196.069 74.361,228.309 51.2,265.95C19.67,326.493 -13.009,396.98 8.591,466.902C30.1,518.066 66.64,563.297 113.111,590.258C121.97,597.326 129.16,606.174 140.16,609.097C164.55,616.733 186.101,634.353 212.661,630.865C232,632.569 246.37,617.301 259.059,604.39C292.3,593.18 324.861,574.422 346.461,543.89C363.041,522.122 385.169,507.425 404.581,488.662C413.41,474.536 421.699,460.404 430.001,445.787C436.119,421.099 442.149,394.628 459.27,375.826C468.181,367.624 456.561,350.568 468.67,344.679C473.149,340.857 484.251,337.43 485.001,330.615L485.001,329.148C484.881,327.97 484.45,326.698 483.65,325.313C471.049,323.547 458.739,327.987 446.301,332.423C433.58,336.962 420.729,341.499 407.3,339.404C343.169,364.09 276.79,392.878 207.12,386.99C202.44,386.281 197.169,386.586 191.83,386.892C179.441,387.599 166.681,388.308 160.121,376.392C156.751,362.303 154.04,347.038 159.01,332.34C173.911,292.953 201.619,261.24 225.35,227.701C238.651,208.943 258.52,196.598 273.461,178.977C313.32,141.985 364.191,122.576 408.939,94.356C426.139,81.488 447.731,77.91 461.49,59.718C464.821,45.59 463.741,30.93 465.349,16.192C456.561,4.079 443.54,0.124 430.019,0.124C420.609,0.124 410.96,2.042 402.33,4.458Z" style="fill:white;"/>
    </g>
</svg>
