<?xml version="1.0" encoding="UTF-8" standalone="no"?>
<!DOCTYPE svg PUBLIC "-//W3C//DTD SVG 1.1//EN" "http://www.w3.org/Graphics/SVG/1.1/DTD/svg11.dtd">
<svg width="100%" height="100%" viewBox="0 0 361 361" version="1.1" xmlns="http://www.w3.org/2000/svg" xmlns:xlink="http://www.w3.org/1999/xlink" xml:space="preserve" xmlns:serif="http://www.serif.com/" style="fill-rule:evenodd;clip-rule:evenodd;stroke-linejoin:round;stroke-miterlimit:2;">
    <g transform="matrix(1.44516,0,0,1.44516,-74.4912,-78.9774)">
        <g id="Glyph_2_">
            <g>
                <path d="M254.5,55C253.63,55.08 245.9,56.45 244.97,56.64L137.97,78.23L137.93,78.24C135.14,78.83 132.95,79.82 131.26,81.24C129.22,82.95 128.09,85.37 127.66,88.19C127.57,88.79 127.42,90.01 127.42,91.81L127.42,225.73C127.42,228.86 127.17,231.9 125.05,234.49C122.93,237.08 120.31,237.86 117.24,238.48C114.91,238.95 112.58,239.42 110.25,239.89C101.41,241.67 95.66,242.88 90.45,244.9C85.47,246.83 81.74,249.29 78.77,252.41C72.88,258.58 70.49,266.95 71.31,274.79C72.01,281.48 75.02,287.88 80.19,292.61C83.68,295.81 88.04,298.24 93.18,299.27C98.51,300.34 104.19,299.97 112.49,298.29C116.91,297.4 121.05,296.01 124.99,293.68C128.89,291.38 132.23,288.31 134.84,284.57C137.46,280.82 139.15,276.65 140.08,272.22C141.04,267.65 141.27,263.52 141.27,258.96L141.27,142.81C141.27,136.59 143.03,134.95 148.05,133.73C148.05,133.73 236.99,115.79 241.14,114.98C246.93,113.87 249.66,115.52 249.66,121.59L249.66,200.88C249.66,204.02 249.63,207.2 247.49,209.8C245.37,212.39 242.75,213.17 239.68,213.79C237.35,214.26 235.02,214.73 232.69,215.2C223.85,216.98 218.1,218.19 212.89,220.21C207.91,222.14 204.18,224.6 201.21,227.72C195.32,233.89 192.72,242.26 193.54,250.1C194.24,256.79 197.46,263.19 202.63,267.92C206.12,271.12 210.48,273.48 215.62,274.52C220.95,275.59 226.63,275.21 234.93,273.54C239.35,272.65 243.49,271.32 247.43,268.99C251.33,266.69 254.67,263.62 257.28,259.88C259.9,256.13 261.59,251.96 262.52,247.53C263.48,242.96 263.52,238.83 263.52,234.27L263.52,64.46C263.54,58.3 260.29,54.5 254.5,55Z" style="fill:white;"/>
            </g>
        </g>
    </g>
</svg>
