<?xml version="1.0" encoding="UTF-8" standalone="no"?>
<!DOCTYPE svg PUBLIC "-//W3C//DTD SVG 1.1//EN" "http://www.w3.org/Graphics/SVG/1.1/DTD/svg11.dtd">
<svg width="100%" height="100%" viewBox="0 0 994 1483" version="1.1" xmlns="http://www.w3.org/2000/svg" xmlns:xlink="http://www.w3.org/1999/xlink" xml:space="preserve" xmlns:serif="http://www.serif.com/" style="fill-rule:evenodd;clip-rule:evenodd;stroke-linejoin:round;stroke-miterlimit:2;">
    <g transform="matrix(1,0,0,1,-1643.24,7.18925e-13)">
        <path d="M1643.24,1020.16L1643.24,918.085C1655.26,921.212 1667.26,925.359 1679.25,930.435C1729.53,951.723 1786,928.702 1809.1,879.13C1831.46,831.154 1811.84,773.862 1764.32,748.3C1756.51,744.099 1748.6,740.046 1741.02,735.462C1682.37,700.01 1650.89,647.509 1645.93,579.658C1637.45,463.51 1729.83,368.356 1845.64,368.962C1874.43,369.113 1901.42,377.274 1927.72,388.258C1945.38,395.633 1963.57,398.247 1982.75,395.413C2026.05,389.016 2060.88,354.078 2067.52,308.681C2073.63,266.907 2048.07,222.28 2010.79,205.771C1951.86,179.677 1915.48,133.51 1899.75,71.04C1893.84,47.562 1893.81,23.827 1895.65,0L1994.04,-0C1982.74,50.579 2004.62,93.841 2051.62,117.186C2122.8,152.535 2162.17,210.859 2164.32,290.313C2166.53,371.582 2129.51,432.974 2057.68,471.092C2000,501.697 1940.82,499.496 1881.18,473.93C1831.24,452.518 1774.27,475.151 1751.42,523.567C1728.31,572.534 1747.74,630.027 1796.15,656.015C1803.05,659.719 1809.88,663.547 1816.71,667.383C1883.26,704.781 1922.78,781.905 1914.16,857.563C1902.05,964.015 1813.3,1039.36 1705.99,1034.7C1683.96,1033.75 1663.46,1027.59 1643.24,1020.16ZM1643.24,1469.17L1643.24,1290.63C1662.51,1328.77 1669.87,1373.02 1661.64,1415.05C1657.9,1434.12 1651.44,1451.97 1643.24,1469.17ZM1722.73,-0C1746.73,14.76 1766.57,32.924 1783.57,54.383C1783.69,54.73 1783.82,55.077 1784.12,55.871C1784.29,56.319 1784.26,56.027 1784.26,56.027L1784.3,56.089C1784.31,56.062 1784.32,56.047 1784.34,56.053C1784.38,56.066 1784.4,56.157 1784.4,56.24C1808.53,92.323 1820.93,131.9 1820.41,175.501C1819.24,273.416 1740.48,357.735 1643.24,366.924L1643.24,268.89C1679.33,261.233 1704.94,239.737 1717.59,203.79C1731.39,164.562 1722.59,129.335 1693.08,98.892C1683.82,92.113 1675.39,85.073 1665.98,79.752C1658.33,75.418 1650.67,71.063 1643.24,66.43L1643.24,0L1722.73,-0ZM2261.46,527.304C2261.59,527.429 2261.74,527.568 2261.91,527.722C2249.95,467.068 2292.76,404.155 2355.04,394.513C2378.18,390.932 2399.73,394.614 2421.02,403.115C2460.86,419.022 2498.23,398.095 2505.24,356.071C2508.9,334.158 2495.32,309.181 2472.66,297.142C2453.07,286.737 2435.49,274.098 2423.75,254.827C2400.11,216.027 2397.93,175.807 2420.38,136.327C2441.49,99.194 2474.74,80.142 2517.94,79.008C2535.79,78.539 2552.33,83.038 2568.53,89.821C2593.92,100.448 2620.61,93.352 2637.24,72.408L2637.24,140.758C2608.99,152.802 2575.4,153.513 2543.01,139.615C2513.71,127.044 2481.44,138.401 2467.09,166.339C2452.91,193.927 2463.08,227.18 2490.66,243.328C2495.66,246.253 2500.79,248.963 2505.75,251.936C2544.06,274.855 2566.56,320.34 2560.2,363.069C2552.81,412.78 2524.94,445.44 2476.84,460.093C2449.19,468.515 2422.49,463.887 2396.05,453.162C2365.87,440.918 2334.08,454.25 2320.8,483.427C2308.14,511.243 2319.51,543.381 2347.36,558.538C2351.55,560.818 2355.69,563.185 2359.84,565.54C2403.32,590.222 2425.44,643.311 2412.59,692.117C2399.35,742.398 2355.08,777.287 2304.74,778.151C2285.46,778.482 2267.83,773.478 2250.23,766.599C2224.41,756.503 2194.42,766.165 2182.35,787.888L2179.39,787.888C2166.43,809.01 2167.64,837.074 2184.48,855.169C2192.6,863.902 2203.58,870.365 2214.08,876.443C2256.57,901.039 2279.03,950.721 2268.68,998.651C2252.98,1071.36 2177.74,1109.07 2108.06,1079.17C2078.76,1066.6 2046.5,1077.96 2032.14,1105.9C2017.96,1133.48 2028.13,1166.74 2055.72,1182.89C2060.71,1185.81 2065.84,1188.52 2070.81,1191.49C2109.11,1214.41 2131.61,1259.9 2125.26,1302.63C2117.86,1352.34 2090,1385 2041.89,1399.65C2014.24,1408.07 1987.54,1403.44 1961.1,1392.72C1930.92,1380.48 1899.13,1393.81 1885.85,1422.99C1876.52,1443.49 1880.24,1466.33 1894,1483L1831.83,1483C1831,1481.58 1830.31,1480.05 1829.8,1478.42C1828.67,1474.8 1827.74,1471.16 1827.01,1467.51C1826.9,1467.32 1826.78,1467.11 1826.64,1466.87C1826.72,1466.88 1826.81,1466.94 1826.92,1467.04C1815.11,1406.46 1857.89,1343.7 1920.09,1334.07C1943.23,1330.49 1964.79,1334.17 1986.07,1342.67C2025.91,1358.58 2063.28,1337.65 2070.3,1295.63C2073.95,1273.71 2060.38,1248.74 2037.71,1236.7C2018.13,1226.3 2000.54,1213.65 1988.8,1194.38C1965.17,1155.59 1962.98,1115.37 1985.43,1075.88C2006.55,1038.75 2039.8,1019.7 2082.99,1018.57C2100.84,1018.1 2117.38,1022.6 2133.59,1029.38C2161.59,1041.1 2191.16,1031.26 2207.09,1005.07C2222.04,980.483 2216.36,947.803 2193.4,929.512C2187.33,924.673 2180.13,921.199 2173.3,917.37C2131.17,893.758 2108.91,849.386 2117.01,798.648C2124.79,749.895 2163.44,712.415 2211.08,705.894C2231.17,703.144 2251.25,704.457 2270.45,712.484C2286.14,719.045 2302.12,722.924 2319.19,717.288C2332.39,712.933 2342.56,704.892 2351.16,693.425L2351.22,696.024C2357.62,686.278 2361.14,674.39 2360.43,661.312C2359.12,637.14 2346.29,619.915 2324.59,609.222C2294.51,594.407 2274.77,570.896 2264.75,538.862C2263.6,535.192 2262.66,531.5 2261.93,527.8C2261.8,527.742 2261.65,527.571 2261.46,527.304ZM2261.46,527.304C2261.12,526.975 2260.94,526.74 2260.97,526.558C2261.16,526.855 2261.32,527.106 2261.46,527.304ZM2637.24,343.372C2613.71,319.525 2602.95,286.792 2605.69,255.289C2608.24,225.991 2620.19,202.296 2637.24,184.885L2637.24,343.372ZM2033.41,1483C2043.17,1448.5 2066.99,1426.1 2100.46,1413.3C2130.3,1401.89 2159.7,1405.22 2189,1417.13C2229.73,1433.69 2273.24,1403.56 2270.91,1360.54C2269.59,1336.37 2256.76,1319.14 2235.06,1308.45C2204.99,1293.63 2185.24,1270.12 2175.22,1238.09C2155.23,1174.23 2199.41,1103.98 2265.51,1093.74C2288.65,1090.16 2310.2,1093.84 2331.49,1102.34C2371.33,1118.25 2408.7,1097.32 2415.72,1055.3C2419.37,1033.38 2405.79,1008.41 2383.13,996.369C2363.55,985.964 2345.96,973.325 2334.22,954.054C2310.58,915.255 2308.4,875.035 2330.85,835.555C2351.96,798.421 2385.22,779.369 2428.41,778.235C2446.26,777.767 2462.8,782.265 2479,789.048C2507,800.769 2536.58,790.933 2552.51,764.741C2567.46,740.153 2561.77,707.473 2538.82,689.182C2532.75,684.343 2525.55,680.869 2518.72,677.039C2476.59,653.428 2454.33,609.055 2462.43,558.318C2470.21,509.565 2508.86,472.085 2556.5,465.564C2576.59,462.813 2596.67,464.126 2615.87,472.154C2622.91,475.099 2630.01,477.503 2637.24,478.75L2637.24,534.314C2622.51,532.011 2608,527.515 2593.76,522.923C2568.77,514.871 2541.57,523.299 2526.66,544.731C2511.78,566.117 2512.29,595.924 2529.9,614.839C2538.02,623.571 2548.99,630.035 2559.5,636.113C2601.99,660.708 2624.45,710.391 2614.1,758.321C2598.4,831.026 2523.16,868.741 2453.48,838.843C2424.18,826.272 2391.91,837.628 2377.56,865.566C2363.38,893.154 2373.55,926.408 2401.14,942.555C2406.13,945.481 2411.26,948.191 2416.22,951.163C2454.53,974.082 2477.03,1019.57 2470.67,1062.3C2463.28,1112.01 2435.41,1144.67 2387.31,1159.32C2359.66,1167.74 2332.96,1163.11 2306.52,1152.39C2276.34,1140.15 2244.55,1153.48 2231.27,1182.65C2218.61,1210.47 2229.98,1242.61 2257.83,1257.77C2262.02,1260.05 2266.16,1262.41 2270.31,1264.77C2313.79,1289.45 2335.91,1342.54 2323.06,1391.35C2309.83,1441.62 2265.55,1476.51 2215.21,1477.38C2195.93,1477.71 2178.3,1472.71 2160.7,1465.83C2136.57,1456.39 2108.81,1464.21 2095.42,1483L2033.41,1483ZM2411.06,1483C2436.35,1427.42 2480.22,1392.64 2539.5,1376.58C2572.86,1367.54 2605.39,1368.46 2637.24,1376.75L2637.24,1478.66C2631.34,1476.42 2625.57,1474.3 2619.72,1472.4C2589.38,1462.53 2560.98,1465.73 2534.94,1483L2411.06,1483ZM2170.75,1483C2179.79,1480.14 2189.18,1480.25 2198.87,1483L2170.75,1483ZM2619.72,1472.4C2625.6,1474.31 2631.4,1476.45 2637.24,1478.7L2637.24,1483L2535.71,1483C2560.98,1465.73 2589.38,1462.53 2619.72,1472.4ZM2393.97,592.202L2393.81,592.083C2393.85,592.037 2393.93,591.953 2393.97,592.202ZM2393.97,592.202C2394.44,592.546 2394.94,592.846 2395.41,593.194C2395.45,593.225 2395.19,593.668 2395.07,593.919C2394.72,593.527 2394.38,593.134 2393.99,592.335C2393.98,592.282 2393.98,592.238 2393.97,592.202ZM2105.17,1221.22L2105.18,1221.23C2105.36,1221.38 2105.23,1221.27 2105.14,1221.27C2105.11,1221.27 2105.13,1221.25 2105.17,1221.22ZM2105.17,1221.22C2105,1221.07 2105.47,1221.08 2105.47,1221.08C2105.47,1221.08 2105.26,1221.17 2105.17,1221.22Z" style="fill:rgb(248,192,28);"/>
    </g>
</svg>
