<?xml version="1.0" encoding="UTF-8" standalone="no"?>
<!DOCTYPE svg PUBLIC "-//W3C//DTD SVG 1.1//EN" "http://www.w3.org/Graphics/SVG/1.1/DTD/svg11.dtd">
<svg width="100%" height="100%" viewBox="0 0 1001 1490" version="1.1" xmlns="http://www.w3.org/2000/svg" xmlns:xlink="http://www.w3.org/1999/xlink" xml:space="preserve" xmlns:serif="http://www.serif.com/" style="fill-rule:evenodd;clip-rule:evenodd;stroke-linejoin:round;stroke-miterlimit:2;">
    <g transform="matrix(1,0,0,1,-3185.01,6.18112)">
        <g>
            <g transform="matrix(2.04842,0,0,2.04842,1717.7,-77.4238)">
                <path d="M716.314,180.507L716.314,129.899C726.245,124.412 733.548,115.647 737.819,103.504C744.555,84.353 740.259,67.157 725.852,52.295C722.572,49.893 719.505,47.424 716.314,45.257L716.314,37.797L774.374,37.797C783.559,53.687 788.239,70.927 788.015,89.694C787.506,132.416 756.736,169.836 716.314,180.507ZM785.196,65.161C785.155,65.148 785.173,65.291 785.201,65.317C785.229,65.343 785.237,65.174 785.196,65.161Z" style="fill:rgb(62,53,132);"/>
            </g>
            <g transform="matrix(2.04842,0,0,2.04842,1792.83,10.4064)">
                <path d="M895.506,718.893C901.425,707.103 911.544,699.009 924.731,693.965C939.297,688.394 953.648,690.018 967.955,695.834C987.838,703.917 1009.08,689.208 1007.94,668.208C1007.3,656.408 1001.03,647.999 990.439,642.779C975.757,635.546 966.119,624.068 961.225,608.43C951.47,577.254 973.033,542.958 1005.31,537.962C1016.6,536.213 1027.12,538.011 1037.52,542.161C1056.96,549.926 1075.21,539.71 1078.63,519.195C1080.42,508.497 1073.79,496.304 1062.72,490.427C1053.16,485.347 1044.58,479.177 1038.85,469.769C1027.31,450.828 1026.24,431.193 1037.2,411.92C1047.51,393.792 1063.74,384.491 1084.83,383.938C1093.54,383.709 1101.62,385.905 1109.53,389.216C1123.2,394.938 1137.64,390.136 1145.41,377.35C1152.71,365.346 1149.93,349.393 1138.73,340.463C1135.76,338.101 1132.25,336.405 1128.91,334.536C1108.35,323.009 1097.48,301.347 1101.43,276.578C1105.23,252.778 1124.1,234.481 1147.36,231.297C1153.24,230.493 1159.11,230.4 1164.89,231.298L1164.89,259.095C1152.88,255.517 1139.94,259.67 1132.79,269.945C1125.53,280.385 1125.78,294.937 1134.37,304.171C1138.34,308.434 1143.7,311.589 1148.82,314.556C1155.15,318.217 1160.56,323.015 1164.89,328.581L1164.89,397.237C1149.75,416.814 1122.64,424.5 1097.07,413.525C1082.76,407.388 1067.01,412.932 1060,426.571C1053.08,440.039 1058.05,456.273 1071.51,464.156C1073.95,465.584 1076.45,466.907 1078.88,468.358C1097.58,479.547 1108.56,501.752 1105.46,522.611C1101.85,546.879 1088.25,562.823 1064.76,569.977C1051.27,574.088 1038.23,571.829 1025.32,566.593C1010.59,560.616 995.07,567.124 988.587,581.368C982.407,594.947 987.961,610.636 1001.56,618.035C1003.6,619.149 1005.62,620.304 1007.65,621.454C1028.87,633.503 1039.67,659.42 1033.4,683.246C1029.24,699.056 1018.79,711.748 1005.32,718.893L952.083,718.893C946.474,717.184 940.586,717.289 935.327,718.893L895.506,718.893Z" style="fill:rgb(4,180,172);"/>
            </g>
            <g transform="matrix(2.04842,0,0,2.04842,1731.77,-53.5408)">
                <path d="M1194.7,68.566C1179.55,78.19 1159.74,80.313 1140.77,72.175C1126.47,66.038 1110.72,71.582 1103.71,85.221C1096.79,98.689 1101.75,114.923 1115.22,122.806C1117.66,124.234 1120.16,125.557 1122.59,127.008C1141.29,138.196 1152.27,160.402 1149.17,181.261C1145.56,205.529 1131.95,221.473 1108.47,228.626C1094.97,232.738 1081.94,230.479 1069.03,225.243C1054.3,219.266 1038.78,225.774 1032.29,240.018C1026.11,253.597 1031.67,269.286 1045.26,276.685C1047.31,277.799 1049.33,278.954 1051.36,280.104C1072.58,292.153 1083.38,318.07 1077.11,341.896C1070.64,366.442 1049.03,383.475 1024.45,383.897C1015.04,384.058 1006.44,381.615 997.846,378.257C985.238,373.328 970.601,378.045 964.706,388.65L963.263,388.65C956.937,398.961 957.525,412.662 965.746,421.495C969.713,425.758 975.069,428.914 980.196,431.881C1000.94,443.888 1011.91,468.142 1006.85,491.541C999.186,527.034 962.458,545.446 928.439,530.85C914.135,524.713 898.385,530.257 891.376,543.896C884.455,557.364 889.421,573.597 902.887,581.48C905.327,582.909 907.828,584.232 910.254,585.683C928.952,596.871 939.937,619.077 936.835,639.936C933.225,664.204 919.621,680.148 896.137,687.301C882.638,691.413 869.603,689.153 856.697,683.918C841.963,677.94 826.443,684.449 819.96,698.692C813.78,712.272 819.334,727.961 832.928,735.36C834.974,736.474 797.492,741.393 792.598,725.755C782.843,694.578 804.406,660.283 836.679,655.286C847.972,653.538 858.496,655.336 868.889,659.485C888.337,667.251 906.581,657.035 910.005,636.52C911.79,625.822 905.161,613.629 894.098,607.752C884.536,602.672 875.95,596.502 870.219,587.094C858.682,568.153 857.615,548.518 868.574,529.245C878.882,511.117 895.115,501.816 916.203,501.262C924.914,501.034 932.991,503.23 940.901,506.541C954.57,512.263 969.01,507.461 976.785,494.675C984.085,482.671 981.308,466.717 970.101,457.788C967.137,455.426 963.623,453.73 960.287,451.86C939.722,440.334 928.856,418.672 932.808,393.903C936.606,370.102 955.476,351.805 978.732,348.622C988.542,347.279 998.345,347.92 1007.71,351.839C1015.37,355.042 1023.18,356.936 1031.51,354.185C1037.95,352.058 1042.92,348.133 1047.12,342.535L1047.14,343.804C1050.27,339.046 1051.99,333.243 1051.64,326.858C1051,315.058 1044.74,306.648 1034.14,301.429C1019.46,294.196 1009.83,282.718 1004.93,267.08C995.176,235.904 1016.74,201.608 1049.01,196.612C1060.31,194.863 1070.83,196.661 1081.22,200.811C1100.67,208.576 1118.91,198.36 1122.34,177.845C1124.12,167.147 1117.5,154.954 1106.43,149.077C1096.87,143.997 1088.28,137.827 1082.55,128.419C1071.02,109.478 1069.95,89.843 1080.91,70.57C1091.22,52.442 1107.45,43.141 1128.54,42.588C1137.25,42.359 1145.32,44.555 1153.24,47.866C1166.9,53.588 1181.34,48.786 1189.12,36C1191,32.912 1192.21,29.562 1192.78,26.138L1194.7,26.138L1194.7,68.566ZM1075.94,315.24C1075.91,315.118 1075.88,315.159 1075.86,315.182C1075.88,315.201 1075.91,315.221 1075.94,315.24ZM1075.94,315.24C1076.16,315.408 1076.41,315.554 1076.64,315.724C1076.66,315.739 1076.53,315.955 1076.47,316.078C1076.3,315.887 1076.13,315.695 1075.94,315.305C1075.94,315.279 1075.94,315.258 1075.94,315.24ZM934.949,622.317C934.95,622.317 934.951,622.318 934.951,622.319C935.041,622.394 934.976,622.339 934.934,622.338C934.921,622.337 934.93,622.328 934.949,622.317ZM934.949,622.317C934.994,622.289 935.094,622.245 935.094,622.245C935.094,622.245 934.865,622.243 934.949,622.317Z" style="fill:rgb(4,180,172);"/>
            </g>
            <g transform="matrix(2.04842,0,0,2.04842,1748,-8.22953)">
                <path d="M873.199,4.018C873.41,3.143 873.641,2.264 873.893,1.38C889.354,1 904.708,1 920.531,1C919.831,1.996 919.157,3.002 918.51,4.018L873.199,4.018Z" style="fill:rgb(62,53,132);"/>
            </g>
            <g transform="matrix(2.04842,0,0,2.04842,1748,-8.22953)">
                <path d="M701.524,502.04C711.394,505.669 721.404,508.675 732.154,509.141C784.544,511.413 827.871,474.632 833.784,422.664C837.987,385.729 818.696,348.079 786.206,329.822C782.873,327.949 779.537,326.08 776.169,324.272C752.538,311.585 743.053,283.518 754.334,259.613C765.488,235.978 793.303,224.928 817.683,235.381C846.794,247.862 875.687,248.937 903.845,233.996C938.914,215.387 956.984,185.417 955.906,145.743C954.853,106.955 935.634,78.483 900.889,61.226C877.943,49.829 867.261,28.709 873.199,4.018L918.51,4.018C912.064,14.133 908.371,25.218 909.77,37.797C911.739,55.503 920.568,68.863 936.44,76.848C956.014,86.695 971.891,100.095 982.503,119.585C1015.18,179.598 975.574,254.358 907.54,261.269C889.219,263.13 872.245,259.162 855.515,252.355C823.078,239.159 788.04,261.717 787.378,296.797C787.019,315.828 795.782,330.806 812.532,340.452C823.646,346.851 835.043,352.744 843.95,362.318C870.106,390.431 878.678,423.178 866.924,459.693C855.29,495.837 829.474,517.463 792.253,524.95C772.376,528.949 753.141,525.84 734.725,517.611C723.817,512.737 712.145,512.033 701.524,514.862L701.524,502.04Z" style="fill:rgb(62,53,132);"/>
            </g>
            <g transform="matrix(2.04842,0,0,2.04842,1748,-8.22953)">
                <path d="M701.524,611.238C712.611,617.845 722.66,625.679 730.375,636.515C750.462,664.732 755.124,695.092 743.723,727.991L701.524,727.991L701.524,721.653C705.423,713.13 708.652,704.283 710.505,694.818C714.522,674.299 710.932,652.7 701.524,634.081L701.524,611.238Z" style="fill:rgb(62,53,132);"/>
            </g>
            <g transform="matrix(2.04842,0,0,2.04842,1748,-8.22953)">
                <path d="M1051.86,727.991C1053.78,717.828 1055.17,707.294 1059.03,697.765C1076.86,653.813 1124.54,629.905 1170.56,641.255C1176.09,642.619 1181.43,644.782 1186.78,646.884L1186.78,676.123C1171.23,672.073 1155.34,671.625 1139.06,676.037C1110.12,683.88 1088.7,700.856 1075.92,727.991L1051.86,727.991Z" style="fill:rgb(62,53,132);"/>
            </g>
            <g transform="matrix(2.04842,0,0,2.04842,1748,-8.22953)">
                <path d="M1186.78,519.575C1180.93,511.634 1177.92,502.213 1175.61,492.536C1169.79,468.106 1174.24,442.489 1186.78,421.461L1186.78,519.575Z" style="fill:rgb(62,53,132);"/>
            </g>
            <g transform="matrix(2.04842,0,0,2.04842,1748,-8.22953)">
                <path d="M1003.33,261.438C1003.26,261.341 1003.18,261.218 1003.09,261.073C1003.07,261.162 1003.16,261.277 1003.33,261.438Z" style="fill:rgb(31,31,27);"/>
            </g>
            <g transform="matrix(2.04842,0,0,2.04842,1748,-8.22953)">
                <path d="M1003.33,261.438C1003.4,261.512 1003.5,261.596 1003.6,261.691C1003.53,261.69 1003.44,261.6 1003.33,261.438Z" style="fill:rgb(31,31,27);"/>
            </g>
            <g transform="matrix(2.04842,0,0,2.04842,1748,-8.22953)">
                <path d="M1068.02,293.119C1067.99,292.998 1067.96,293.039 1067.94,293.062C1067.96,293.081 1067.99,293.1 1068.02,293.119Z" style="fill:rgb(36,35,29);"/>
            </g>
            <g transform="matrix(2.04842,0,0,2.04842,1748,-8.22953)">
                <path d="M1068.02,293.119C1068.25,293.288 1068.49,293.434 1068.72,293.604C1068.74,293.619 1068.61,293.835 1068.55,293.958C1068.38,293.766 1068.21,293.575 1068.03,293.184C1068.02,293.159 1068.02,293.137 1068.02,293.119Z" style="fill:rgb(36,35,29);"/>
            </g>
            <g transform="matrix(2.04842,0,0,2.04842,1748,-8.22953)">
                <path d="M927.03,600.197C927.031,600.197 927.031,600.198 927.032,600.199C927.122,600.274 927.057,600.219 927.014,600.217C927.002,600.217 927.011,600.208 927.03,600.197Z" style="fill:rgb(35,34,29);"/>
            </g>
            <g transform="matrix(2.04842,0,0,2.04842,1748,-8.22953)">
                <path d="M927.03,600.197C927.075,600.169 927.175,600.124 927.175,600.124C927.175,600.124 926.946,600.123 927.03,600.197Z" style="fill:rgb(35,34,29);"/>
            </g>
            <g transform="matrix(2.04842,0,0,2.04842,1748,-8.22953)">
                <path d="M770.406,31.382C770.365,31.369 770.383,31.511 770.411,31.537C770.439,31.564 770.447,31.394 770.406,31.382Z" style="fill:rgb(35,34,29);"/>
            </g>
            <g transform="matrix(2.04842,0,0,2.04842,1748,-8.22953)">
                <path d="M1188.9,523.227C1189.26,523.364 1189.56,523.8 1189.88,524.567C1189.54,524.441 1189.19,523.984 1188.9,523.227Z" style="fill:rgb(30,30,27);"/>
            </g>
        </g>
    </g>
</svg>
