<?xml version="1.0" encoding="UTF-8" standalone="no"?>
<!DOCTYPE svg PUBLIC "-//W3C//DTD SVG 1.1//EN" "http://www.w3.org/Graphics/SVG/1.1/DTD/svg11.dtd">
<svg width="100%" height="100%" viewBox="0 0 2000 750" version="1.1" xmlns="http://www.w3.org/2000/svg" xmlns:xlink="http://www.w3.org/1999/xlink" xml:space="preserve" xmlns:serif="http://www.serif.com/" style="fill-rule:evenodd;clip-rule:evenodd;stroke-linejoin:round;stroke-miterlimit:2;">
    <g id="Untitled">
        <path id="Fill" d="M656.834,29.377C646.83,68.266 633.176,105.596 624.263,144.994C607.941,176.515 606.906,213.298 596.938,246.925C598.483,278.477 587.44,308.365 588.005,339.922C567.488,314.173 545.975,288.974 524.952,263.231C508.136,239.555 502.85,210.137 486.059,187.044C467.141,154.436 438.762,128.692 408.785,106.068C403.469,106.079 398.067,105.876 392.639,105.674C378.784,105.157 364.755,104.639 351.541,107.665C342.098,126.618 342.603,149.21 332.619,167.581C325.776,184.902 316.334,201.718 313.173,220.635C312.667,251.136 301.608,280.587 296.346,310.507C279.004,342.533 290.064,379.352 284.271,414.034C271.143,411.964 268.528,394.571 260.123,386.18C235.92,339.412 202.293,298.45 180.235,250.627C160.772,216.459 143.452,180.217 118.738,149.17C108.774,137.079 106.664,120.301 95.1,109.771C83.555,95.611 57.807,91.905 44.646,106.105C44.137,113.473 47.293,121.32 46.752,128.692C43.556,130.907 40.238,129.662 36.966,128.416C33.261,127.007 29.615,125.596 26.27,129.202C1.872,141.183 1.087,169.51 0,192.495L0,193.738C1.701,210.936 9.485,226.573 15.215,242.749C24.144,269.508 43.575,291.044 57.262,315.774C73.042,347.291 96.155,375.177 106.159,409.312C114.547,427.684 118.213,447.151 129.252,463.926C142.923,496.025 156.071,528.055 170.777,559.576C183.901,581.144 199.137,601.625 210.701,624.209C232.762,655.725 252.226,692.549 287.938,709.833C303.714,713.03 319.459,714.045 335.254,716.151C343.678,724.579 355.207,729.3 365.737,720.873C382.002,701.482 385.147,674.611 388.83,649.99C397.257,638.444 406.17,627.915 411.982,614.77C431.405,593.198 420.334,563.277 424.057,537.493C430.354,505.976 428.248,473.95 429.283,442.43C429.828,441.339 431.934,438.727 432.476,437.127C453.997,453.979 466.103,483.393 480.808,506.991C504.45,541.199 521.241,580.635 551.237,610.045C568.559,623.19 584.828,638.878 605.851,645.272C614.295,644.69 621.612,638.878 630.015,640.988C635.266,651.518 639.478,665.168 652.113,667.855C662.627,662.553 662.627,649.412 669.434,640.988C675.751,633.141 680.998,624.718 687.32,617.382C700.445,612.154 715.68,603.15 714.645,587.461C713.59,545.411 723.562,503.362 721.982,461.311C724.613,398.783 725.684,335.746 723.033,273.214C730.911,249.031 727.229,223.286 730.911,198.557C737.229,158.612 729.35,118.159 733.526,77.709C728.279,57.772 694.653,30.428 694.653,30.428C694.653,30.428 679.947,8.895 677.862,0.002C665.222,4.178 659.995,17.865 656.834,29.377" style="fill:white;fill-rule:nonzero;"/>
        <path id="Fill_2" d="M1129.75,18.883C1107.13,45.133 1079.31,66.706 1055.67,91.905C1039.37,111.841 1018.85,129.202 1002.06,148.66C997.881,163.915 984.736,172.808 978.419,186.499C978.419,186.499 968.703,210.029 961.603,215.404C956.893,218.972 954.252,218.715 951.791,218.458C950.546,218.329 949.346,218.198 947.948,218.565C936.914,211.737 931.121,200.153 924.84,189.659C903.793,152.367 873.821,120.81 850.723,85.082C842.865,60.352 814.991,50.401 791.862,48.804C783.454,40.958 770.309,34.098 760.871,43.573C743.531,54.612 749.302,77.2 753.008,93.505C753.498,113.473 766.66,129.202 771.91,148.15C798.709,208.036 824.449,268.999 853.88,328.41C857.57,336.251 862.308,346.24 857.025,354.628C823.945,412.437 795.549,472.86 765.589,532.775C754.043,546.94 738.829,562.186 740.899,582.158C743.041,602.641 728.295,619.488 727.738,639.969C727.77,666.259 724.083,696.689 744.056,717.242C751.392,717.242 760.851,718.839 765.589,710.924C801.356,706.708 836.544,690.443 860.708,664.153C874.362,641.06 896.46,624.718 908.008,601.039C925.309,575.331 932.682,538.584 962.113,524.857C982.084,554.85 1003.11,585.355 1025.17,614.185C1042.02,631.036 1059.37,649.99 1083.49,654.638C1099.29,650.499 1113.45,642.075 1129.75,638.444C1147.07,634.16 1158.65,615.276 1158.65,598.429C1150.78,567.417 1129.28,542.796 1111.88,517.521C1118.2,489.129 1098.19,463.421 1084.54,439.742C1068.78,418.246 1055.09,395.659 1039.37,374.09C1028.84,359.384 1046.19,347.8 1050.91,334.691C1059.88,314.683 1077.71,300.52 1087.73,281.092C1107.2,248.525 1111.88,209.631 1129.24,175.969C1151.32,144.449 1160.76,106.105 1177.57,71.932C1174.92,51.455 1168.09,31.483 1158.11,13.617C1154.72,11.623 1150.74,10.614 1146.76,10.614C1140.22,10.614 1133.67,13.332 1129.75,18.883" style="fill:white;fill-rule:nonzero;"/>
        <path id="Fill_3" d="M1605.8,43.031C1594.8,54.071 1590.05,69.827 1576.94,79.305C1566.95,78.255 1562.74,63.003 1551.15,66.706C1539.1,70.372 1524.36,69.318 1514.37,77.709C1472.86,113.983 1446.1,163.915 1414,207.526C1405.11,203.86 1400.35,194.381 1393.02,188.063C1368.36,164.457 1342.03,141.292 1319.44,114.998C1299.47,92.414 1275.84,73.533 1249.58,59.842C1229.57,50.91 1210.14,59.878 1194.89,73.533C1195.44,105.559 1213.85,132.904 1225.9,161.773C1254.81,217.983 1301.58,264.281 1344.68,308.947C1317.88,361.996 1286.36,411.928 1262.14,466.538C1239.02,509.101 1224.85,556.378 1200.19,598.429C1192.79,614.185 1181.24,628.425 1177.07,645.272C1174.92,662.553 1174.92,679.914 1179.68,696.764C1189.15,698.795 1199.1,695.092 1208.58,694.073C1208.51,715.06 1216.42,734.526 1231.17,749.778C1242.17,746.653 1250.05,735.618 1262.14,735.032C1295.81,732.421 1328.92,712.449 1338.4,678.822C1362,652.532 1371.95,617.891 1387.79,586.88C1397.23,563.711 1411.39,542.796 1420.87,519.121C1440.84,484.985 1453.44,447.657 1470.25,411.928C1509.14,355.718 1534.89,292.131 1553.8,226.953C1569.06,174.918 1596.87,128.183 1615.79,77.2C1614.8,67.363 1622.56,42.688 1608.85,42.689C1607.93,42.689 1606.92,42.799 1605.8,43.031" style="fill:white;fill-rule:nonzero;"/>
        <path id="Fill_4" d="M1917.33,32.45C1867,48.892 1816.63,65.948 1770.73,94.736C1729.31,126.486 1685.62,155.844 1647.44,192.877C1618.17,224.06 1589.36,256.299 1566.2,293.941C1534.67,354.483 1501.99,424.972 1523.59,494.893C1545.1,546.058 1581.64,591.288 1628.11,618.248C1636.97,625.316 1644.16,634.165 1655.16,637.089C1679.55,644.723 1701.1,662.344 1727.66,658.855C1747,660.559 1761.37,645.292 1774.06,632.38C1807.3,621.172 1839.86,602.412 1861.46,571.882C1878.04,550.113 1900.17,535.415 1919.58,516.654C1928.41,502.527 1936.7,488.395 1945,473.778C1951.12,449.089 1957.15,422.618 1974.27,403.817C1983.18,395.614 1971.56,378.558 1983.67,372.67C1988.15,368.847 1999.25,365.421 2000,358.607L2000,357.139C1999.88,355.961 1999.45,354.688 1998.65,353.304C1986.05,351.539 1973.74,355.977 1961.3,360.414C1948.58,364.952 1935.73,369.49 1922.3,367.395C1858.17,392.08 1791.79,420.869 1722.12,414.981C1717.44,414.272 1712.17,414.577 1706.83,414.883C1694.44,415.591 1681.68,416.298 1675.12,404.383C1671.75,390.295 1669.04,375.029 1674.01,360.331C1688.91,320.944 1716.62,289.231 1740.35,255.693C1753.65,236.933 1773.52,224.589 1788.46,206.968C1828.32,169.976 1879.19,150.566 1923.94,122.347C1941.14,109.478 1962.73,105.9 1976.49,87.709C1979.82,73.581 1978.74,58.92 1980.35,44.182C1971.56,32.07 1958.54,28.115 1945.02,28.115C1935.61,28.115 1925.96,30.033 1917.33,32.45" style="fill:white;fill-rule:nonzero;"/>
    </g>
</svg>
